<svg width="207" height="136" viewBox="0 0 207 136" fill="none" xmlns="http://www.w3.org/2000/svg">
<path d="M4.87725 130.439H2.75329V135.937H2.12396V130.439H0V129.888H4.87725V130.439Z" fill="url(#paint0_linear_34_120)"/>
<path d="M6.93828 135.59C6.45056 135.323 6.07296 134.952 5.79764 134.488C5.52231 134.023 5.38858 133.495 5.38858 132.912C5.38858 132.329 5.52231 131.802 5.79764 131.337C6.07296 130.872 6.45056 130.502 6.93828 130.234C7.42601 129.966 7.9688 129.833 8.56666 129.833C9.16451 129.833 9.7073 129.966 10.1872 130.226C10.667 130.494 11.0446 130.856 11.3199 131.329C11.5953 131.802 11.7369 132.322 11.7369 132.904C11.7369 133.487 11.5953 134.015 11.3199 134.48C11.0446 134.952 10.667 135.315 10.1872 135.583C9.7073 135.85 9.16451 135.976 8.56666 135.976C7.9688 135.976 7.42601 135.842 6.93828 135.575V135.59ZM9.85677 135.094C10.2422 134.882 10.5412 134.582 10.7614 134.196C10.9817 133.81 11.0918 133.385 11.0918 132.912C11.0918 132.44 10.9817 132.014 10.7614 131.628C10.5412 131.242 10.2422 130.943 9.85677 130.73C9.47131 130.518 9.03865 130.408 8.55879 130.408C8.07893 130.408 7.64627 130.518 7.26081 130.73C6.87535 130.943 6.56856 131.25 6.34829 131.628C6.12803 132.014 6.0179 132.44 6.0179 132.912C6.0179 133.385 6.12803 133.81 6.34829 134.196C6.56856 134.582 6.87535 134.882 7.26081 135.094C7.64627 135.307 8.07893 135.417 8.55879 135.417C9.03865 135.417 9.47131 135.307 9.85677 135.094Z" fill="url(#paint1_linear_34_120)"/>
<path d="M17.3378 130.439C17.7784 130.809 17.9908 131.313 17.9908 131.959C17.9908 132.605 17.7705 133.109 17.3378 133.479C16.8973 133.842 16.2916 134.031 15.5285 134.031H13.908V135.945H13.2708V129.896H15.5364C16.3073 129.896 16.913 130.077 17.3457 130.447L17.3378 130.439ZM16.8816 133.07C17.1962 132.81 17.3536 132.44 17.3536 131.959C17.3536 131.479 17.1962 131.093 16.8816 130.833C16.5669 130.573 16.1107 130.439 15.5049 130.439H13.9002V133.464H15.5049C16.1028 133.464 16.5591 133.33 16.8816 133.07Z" fill="url(#paint2_linear_34_120)"/>
<path d="M23.1433 130.439H19.9259V135.937H19.3045V129.888H23.1433V130.439Z" fill="url(#paint3_linear_34_120)"/>
<path d="M24.4492 135.59C23.9615 135.323 23.5839 134.952 23.3085 134.488C23.0332 134.023 22.8995 133.495 22.8995 132.912C22.8995 132.329 23.0332 131.802 23.3085 131.337C23.5839 130.872 23.9615 130.502 24.4492 130.234C24.9369 129.966 25.4797 129.833 26.0776 129.833C26.6754 129.833 27.2182 129.966 27.6981 130.226C28.1779 130.494 28.5555 130.856 28.8309 131.329C29.1062 131.802 29.2478 132.322 29.2478 132.904C29.2478 133.487 29.1062 134.015 28.8309 134.48C28.5555 134.952 28.1779 135.315 27.6981 135.583C27.2182 135.85 26.6754 135.976 26.0776 135.976C25.4797 135.976 24.9369 135.842 24.4492 135.575V135.59ZM27.3677 135.094C27.7531 134.882 28.0521 134.582 28.2723 134.196C28.4926 133.81 28.6027 133.385 28.6027 132.912C28.6027 132.44 28.4926 132.014 28.2723 131.628C28.0521 131.242 27.7531 130.943 27.3677 130.73C26.9822 130.518 26.5496 130.408 26.0697 130.408C25.5898 130.408 25.1572 130.518 24.7717 130.73C24.3863 130.943 24.0795 131.25 23.8592 131.628C23.6389 132.014 23.5288 132.44 23.5288 132.912C23.5288 133.385 23.6389 133.81 23.8592 134.196C24.0795 134.582 24.3863 134.882 24.7717 135.094C25.1572 135.307 25.5898 135.417 26.0697 135.417C26.5496 135.417 26.9822 135.307 27.3677 135.094Z" fill="url(#paint4_linear_34_120)"/>
<path d="M35.3129 133.322C35.5331 133.574 35.6433 133.897 35.6433 134.306C35.6433 134.834 35.4545 135.236 35.0847 135.52C34.715 135.803 34.1644 135.945 33.4485 135.945H30.7739V129.896H33.2833C33.9284 129.896 34.4318 130.029 34.7937 130.289C35.1555 130.557 35.3365 130.935 35.3365 131.439C35.3365 131.778 35.2499 132.07 35.0769 132.298C34.9038 132.534 34.66 132.708 34.3532 132.818C34.7701 132.904 35.0926 133.07 35.3129 133.322ZM31.4032 132.629H33.2518C33.716 132.629 34.0778 132.534 34.3296 132.345C34.5813 132.156 34.7071 131.88 34.7071 131.518C34.7071 131.156 34.5813 130.88 34.3296 130.691C34.0778 130.502 33.7238 130.408 33.2518 130.408H31.4032V132.637V132.629ZM35.0139 134.259C35.0139 133.495 34.4948 133.117 33.4485 133.117H31.4032V135.425H33.4485C34.4869 135.425 35.0139 135.039 35.0139 134.259Z" fill="url(#paint5_linear_34_120)"/>
<path d="M38.255 135.59C37.7672 135.323 37.3896 134.952 37.1143 134.488C36.839 134.023 36.7052 133.495 36.7052 132.912C36.7052 132.329 36.839 131.802 37.1143 131.337C37.3896 130.872 37.7672 130.502 38.255 130.234C38.7427 129.966 39.2855 129.833 39.8833 129.833C40.4812 129.833 41.024 129.966 41.5038 130.226C41.9837 130.494 42.3613 130.856 42.6366 131.329C42.9119 131.802 43.0535 132.322 43.0535 132.904C43.0535 133.487 42.9119 134.015 42.6366 134.48C42.3613 134.952 41.9837 135.315 41.5038 135.583C41.024 135.85 40.4812 135.976 39.8833 135.976C39.2855 135.976 38.7427 135.842 38.255 135.575V135.59ZM41.1734 135.094C41.5589 134.882 41.8578 134.582 42.0781 134.196C42.2984 133.81 42.4085 133.385 42.4085 132.912C42.4085 132.44 42.2984 132.014 42.0781 131.628C41.8578 131.242 41.5589 130.943 41.1734 130.73C40.788 130.518 40.3553 130.408 39.8755 130.408C39.3956 130.408 38.9629 130.518 38.5775 130.73C38.192 130.943 37.8852 131.25 37.665 131.628C37.4447 132.014 37.3346 132.44 37.3346 132.912C37.3346 133.385 37.4447 133.81 37.665 134.196C37.8852 134.582 38.192 134.882 38.5775 135.094C38.9629 135.307 39.3956 135.417 39.8755 135.417C40.3553 135.417 40.788 135.307 41.1734 135.094Z" fill="url(#paint6_linear_34_120)"/>
<path d="M44.147 133.33H46.4126V133.865H44.147V133.33Z" fill="url(#paint7_linear_34_120)"/>
<path d="M53.0362 129.888V135.937H52.4069V130.439H48.5837V135.937H47.9544V129.888H53.0362Z" fill="url(#paint8_linear_34_120)"/>
<path d="M56.0963 135.59C55.6085 135.323 55.2309 134.952 54.9556 134.488C54.6803 134.023 54.5465 133.495 54.5465 132.912C54.5465 132.329 54.6803 131.802 54.9556 131.337C55.2309 130.872 55.6085 130.502 56.0963 130.234C56.584 129.966 57.1268 129.833 57.7246 129.833C58.3225 129.833 58.8653 129.966 59.3451 130.226C59.825 130.494 60.2026 130.856 60.4779 131.329C60.7532 131.802 60.8948 132.322 60.8948 132.904C60.8948 133.487 60.7532 134.015 60.4779 134.48C60.2026 134.952 59.825 135.315 59.3451 135.583C58.8653 135.85 58.3225 135.976 57.7246 135.976C57.1268 135.976 56.584 135.842 56.0963 135.575V135.59ZM59.0147 135.094C59.4002 134.882 59.6991 134.582 59.9194 134.196C60.1397 133.81 60.2498 133.385 60.2498 132.912C60.2498 132.44 60.1397 132.014 59.9194 131.628C59.6991 131.242 59.4002 130.943 59.0147 130.73C58.6293 130.518 58.1966 130.408 57.7168 130.408C57.2369 130.408 56.8042 130.518 56.4188 130.73C56.0333 130.943 55.7265 131.25 55.5063 131.628C55.286 132.014 55.1759 132.44 55.1759 132.912C55.1759 133.385 55.286 133.81 55.5063 134.196C55.7265 134.582 56.0333 134.882 56.4188 135.094C56.8042 135.307 57.2369 135.417 57.7168 135.417C58.1966 135.417 58.6293 135.307 59.0147 135.094Z" fill="url(#paint9_linear_34_120)"/>
<path d="M66.2834 130.439H64.1595V135.937H63.5301V130.439H61.4062V129.888H66.2834V130.439Z" fill="url(#paint10_linear_34_120)"/>
<path d="M71.4832 130.439C71.9237 130.809 72.1361 131.313 72.1361 131.959C72.1361 132.605 71.9159 133.109 71.4832 133.479C71.0427 133.842 70.437 134.031 69.6739 134.031H68.0534V135.945H67.4162V129.896H69.6818C70.4527 129.896 71.0584 130.077 71.4911 130.447L71.4832 130.439ZM71.0269 133.07C71.3416 132.81 71.4989 132.44 71.4989 131.959C71.4989 131.479 71.3416 131.093 71.0269 130.833C70.7123 130.573 70.256 130.439 69.6503 130.439H68.0455V133.464H69.6503C70.2482 133.464 70.7044 133.33 71.0269 133.07Z" fill="url(#paint11_linear_34_120)"/>
<path d="M77.7292 135.937H73.4577V129.888H77.6034V130.439H74.0949V132.589H77.2179V133.133H74.0949V135.378H77.7292V135.937Z" fill="url(#paint12_linear_34_120)"/>
<path d="M79.1452 129.888H83.5662V130.431H79.7745V132.408H81.749C82.4649 132.408 83.0077 132.558 83.3774 132.849C83.7471 133.141 83.9359 133.574 83.9359 134.125C83.9359 134.677 83.7393 135.157 83.3381 135.464C82.9369 135.779 82.3626 135.929 81.6153 135.929H79.1452V129.88V129.888ZM81.6074 135.433C82.166 135.433 82.5907 135.323 82.8739 135.11C83.1571 134.897 83.2987 134.582 83.2987 134.157C83.2987 133.732 83.1571 133.432 82.8818 133.227C82.5986 133.023 82.1817 132.92 81.6074 132.92H79.7745V135.425H81.6074V135.433Z" fill="url(#paint13_linear_34_120)"/>
<path d="M85.4148 129.888H86.0442V134.905L89.9145 129.888H90.4966V135.937H89.8673V130.935L85.997 135.937H85.4148V129.888Z" fill="url(#paint14_linear_34_120)"/>
<path d="M96.483 130.439H94.3591V135.937H93.7298V130.439H91.6058V129.888H96.483V130.439Z" fill="url(#paint15_linear_34_120)"/>
<path d="M101.879 135.937H97.608V129.888H101.754V130.439H98.2451V132.589H101.368V133.133H98.2451V135.378H101.879V135.937Z" fill="url(#paint16_linear_34_120)"/>
<path d="M108.039 129.888V135.937H107.41V130.439H104.491L104.42 132.463C104.389 133.298 104.326 133.968 104.216 134.48C104.106 134.992 103.948 135.37 103.728 135.622C103.508 135.874 103.217 136 102.855 136C102.698 136 102.54 135.976 102.375 135.937L102.43 135.37C102.525 135.393 102.627 135.401 102.713 135.401C102.965 135.401 103.17 135.299 103.327 135.102C103.484 134.897 103.602 134.59 103.689 134.165C103.767 133.739 103.823 133.18 103.854 132.487L103.941 129.896H108.039V129.888Z" fill="url(#paint17_linear_34_120)"/>
<path d="M114.238 132.534C114.615 132.857 114.804 133.33 114.804 133.952C114.804 134.574 114.608 135.094 114.206 135.433C113.805 135.772 113.231 135.937 112.476 135.937H110.076V129.888H110.706V132.046H112.609C113.325 132.046 113.868 132.211 114.246 132.526L114.238 132.534ZM113.726 135.055C114.018 134.811 114.159 134.44 114.159 133.96C114.159 133.03 113.593 132.566 112.452 132.566H110.698V135.425H112.452C113.011 135.425 113.435 135.299 113.726 135.055Z" fill="url(#paint18_linear_34_120)"/>
<path d="M117.227 135.59C116.747 135.323 116.37 134.96 116.094 134.488C115.819 134.015 115.685 133.495 115.685 132.912C115.685 132.329 115.819 131.802 116.094 131.337C116.37 130.864 116.747 130.502 117.227 130.234C117.715 129.966 118.25 129.84 118.848 129.84C119.296 129.84 119.713 129.911 120.091 130.069C120.468 130.218 120.791 130.439 121.058 130.723L120.649 131.132C120.177 130.652 119.579 130.415 118.863 130.415C118.383 130.415 117.951 130.526 117.557 130.746C117.164 130.967 116.857 131.266 116.637 131.644C116.417 132.022 116.307 132.448 116.307 132.92C116.307 133.393 116.417 133.818 116.637 134.196C116.857 134.574 117.164 134.874 117.557 135.094C117.951 135.315 118.383 135.425 118.863 135.425C119.587 135.425 120.185 135.181 120.649 134.7L121.058 135.11C120.791 135.401 120.468 135.622 120.091 135.772C119.705 135.921 119.288 136 118.84 136C118.242 136 117.699 135.866 117.219 135.606L117.227 135.59Z" fill="url(#paint19_linear_34_120)"/>
<path d="M123.001 133.164V135.937H122.38V129.888H123.001V132.605H124.386L126.431 129.888H127.123L124.881 132.826L127.257 135.937H126.525L124.394 133.164H123.001Z" fill="url(#paint20_linear_34_120)"/>
<path d="M128.24 129.888H128.87V134.905L132.74 129.888H133.322V135.937H132.693V130.935L128.822 135.937H128.24V129.888Z" fill="url(#paint21_linear_34_120)"/>
<path d="M135.352 129.888H135.981V134.905L139.851 129.888H140.433V135.937H139.804V130.935L135.934 135.937H135.352V129.888ZM136.846 129.155C136.595 128.958 136.469 128.682 136.461 128.336H136.933C136.933 128.564 137.027 128.746 137.192 128.879C137.358 129.013 137.586 129.076 137.869 129.076C138.152 129.076 138.364 129.013 138.538 128.879C138.711 128.746 138.797 128.564 138.797 128.336H139.269C139.269 128.69 139.135 128.958 138.884 129.155C138.632 129.352 138.294 129.447 137.869 129.447C137.444 129.447 137.098 129.352 136.846 129.155Z" fill="url(#paint22_linear_34_120)"/>
<path d="M145.35 133.164V135.937H144.729V129.888H145.35V132.605H146.734L148.78 129.888H149.472L147.23 132.826L149.606 135.937H148.874L146.742 133.164H145.35Z" fill="url(#paint23_linear_34_120)"/>
<path d="M151.596 135.59C151.108 135.323 150.731 134.952 150.455 134.488C150.18 134.023 150.046 133.495 150.046 132.912C150.046 132.329 150.18 131.802 150.455 131.337C150.731 130.872 151.108 130.502 151.596 130.234C152.084 129.966 152.627 129.833 153.224 129.833C153.822 129.833 154.365 129.966 154.845 130.226C155.325 130.494 155.702 130.856 155.978 131.329C156.253 131.802 156.395 132.322 156.395 132.904C156.395 133.487 156.253 134.015 155.978 134.48C155.702 134.952 155.325 135.315 154.845 135.583C154.365 135.85 153.822 135.976 153.224 135.976C152.627 135.976 152.084 135.842 151.596 135.575V135.59ZM154.514 135.094C154.9 134.882 155.199 134.582 155.419 134.196C155.639 133.81 155.75 133.385 155.75 132.912C155.75 132.44 155.639 132.014 155.419 131.628C155.199 131.242 154.9 130.943 154.514 130.73C154.129 130.518 153.696 130.408 153.216 130.408C152.737 130.408 152.304 130.518 151.919 130.73C151.533 130.943 151.226 131.25 151.006 131.628C150.786 132.014 150.676 132.44 150.676 132.912C150.676 133.385 150.786 133.81 151.006 134.196C151.226 134.582 151.533 134.882 151.919 135.094C152.304 135.307 152.737 135.417 153.216 135.417C153.696 135.417 154.129 135.307 154.514 135.094Z" fill="url(#paint24_linear_34_120)"/>
<path d="M158.943 135.59C158.456 135.323 158.078 134.952 157.803 134.488C157.527 134.023 157.394 133.495 157.394 132.912C157.394 132.329 157.527 131.802 157.803 131.337C158.078 130.872 158.456 130.502 158.943 130.234C159.431 129.966 159.974 129.833 160.572 129.833C161.17 129.833 161.712 129.966 162.192 130.226C162.672 130.494 163.05 130.856 163.325 131.329C163.6 131.802 163.742 132.322 163.742 132.904C163.742 133.487 163.6 134.015 163.325 134.48C163.05 134.952 162.672 135.315 162.192 135.583C161.712 135.85 161.17 135.976 160.572 135.976C159.974 135.976 159.431 135.842 158.943 135.575V135.59ZM161.862 135.094C162.247 134.882 162.546 134.582 162.766 134.196C162.987 133.81 163.097 133.385 163.097 132.912C163.097 132.44 162.987 132.014 162.766 131.628C162.546 131.242 162.247 130.943 161.862 130.73C161.476 130.518 161.044 130.408 160.564 130.408C160.084 130.408 159.651 130.518 159.266 130.73C158.88 130.943 158.574 131.25 158.353 131.628C158.133 132.014 158.023 132.44 158.023 132.912C158.023 133.385 158.133 133.81 158.353 134.196C158.574 134.582 158.88 134.882 159.266 135.094C159.651 135.307 160.084 135.417 160.564 135.417C161.044 135.417 161.476 135.307 161.862 135.094Z" fill="url(#paint25_linear_34_120)"/>
<path d="M170.35 129.888V135.937H169.72V130.439H165.897V135.937H165.268V129.888H170.35Z" fill="url(#paint26_linear_34_120)"/>
<path d="M176.667 135.937H172.395V129.888H176.541V130.439H173.032V132.589H176.155V133.133H173.032V135.378H176.667V135.937Z" fill="url(#paint27_linear_34_120)"/>
<path d="M182.157 130.439C182.598 130.809 182.81 131.313 182.81 131.959C182.81 132.605 182.59 133.109 182.157 133.479C181.717 133.842 181.111 134.031 180.348 134.031H178.728V135.945H178.09V129.896H180.356C181.127 129.896 181.733 130.077 182.165 130.447L182.157 130.439ZM181.701 133.07C182.016 132.81 182.173 132.44 182.173 131.959C182.173 131.479 182.016 131.093 181.701 130.833C181.387 130.573 180.93 130.439 180.325 130.439H178.72V133.464H180.325C180.922 133.464 181.379 133.33 181.701 133.07Z" fill="url(#paint28_linear_34_120)"/>
<path d="M187.688 134.322H184.321L183.597 135.937H182.936L185.697 129.888H186.327L189.088 135.937H188.411L187.688 134.322ZM187.452 133.802L186.004 130.549L184.557 133.802H187.46H187.452Z" fill="url(#paint29_linear_34_120)"/>
<path d="M193.894 130.439H191.77V135.937H191.141V130.439H189.017V129.888H193.894V130.439Z" fill="url(#paint30_linear_34_120)"/>
<path d="M195.019 129.888H195.649V134.905L199.519 129.888H200.101V135.937H199.472V130.935L195.601 135.937H195.019V129.888Z" fill="url(#paint31_linear_34_120)"/>
<path d="M206.67 133.322C206.89 133.574 207 133.897 207 134.306C207 134.834 206.811 135.236 206.441 135.52C206.072 135.803 205.521 135.945 204.805 135.945H202.131V129.896H204.64C205.285 129.896 205.789 130.029 206.15 130.289C206.512 130.557 206.693 130.935 206.693 131.439C206.693 131.778 206.607 132.07 206.434 132.298C206.261 132.534 206.017 132.708 205.71 132.818C206.127 132.904 206.449 133.07 206.67 133.322ZM202.76 132.629H204.609C205.073 132.629 205.435 132.534 205.686 132.345C205.938 132.156 206.064 131.88 206.064 131.518C206.064 131.156 205.938 130.88 205.686 130.691C205.435 130.502 205.081 130.408 204.609 130.408H202.76V132.637V132.629ZM206.371 134.259C206.371 133.495 205.851 133.117 204.805 133.117H202.76V135.425H204.805C205.844 135.425 206.371 135.039 206.371 134.259Z" fill="url(#paint32_linear_34_120)"/>
<path d="M123.772 22.5826L129.066 29.1125L129.719 29.9238L137.287 29.9395L140.441 33.8149H131.835L126.95 39.817H158.251L161.413 35.9259H194.988L197.426 32.9248L194.988 29.9238H164.796L159.911 23.9217H128.61L132.842 29.1204H130.073L124.37 22.0864C124.803 21.5035 124.81 20.6922 124.331 20.1015C123.772 19.4083 122.749 19.3059 122.057 19.8652C121.365 20.4244 121.263 21.4484 121.821 22.1416C122.293 22.7323 123.096 22.8898 123.756 22.5905L123.772 22.5826Z" fill="url(#paint33_linear_34_120)"/>
<path d="M118.297 41.928L123.182 35.9259H91.8733L86.9881 41.928H105.994L101.109 47.93H109.84L114.726 41.928H118.187L113.302 47.93H144.603L149.488 41.928H118.297Z" fill="url(#paint34_linear_34_120)"/>
<path d="M84.2113 23.9217H88.6558L92.5734 28.7344H87.6096L82.7245 34.7365H114.033L117.951 29.9238H124.842L119.957 23.9217H115.52L110.635 17.9196H79.334L84.2113 23.9217Z" fill="url(#paint35_linear_34_120)"/>
<path d="M63.3649 17.9196L58.4798 11.9175H49.748L54.6331 17.9196H63.3649Z" fill="url(#paint36_linear_34_120)"/>
<path d="M73.3712 35.9259L76.5414 39.817H72.5216L77.4067 45.8191H86.1386L82.9762 41.928H86.9881L82.103 35.9259H73.3712Z" fill="url(#paint37_linear_34_120)"/>
<path d="M47.8207 29.9238L45.6967 32.531H19.7765C19.6034 31.83 18.9662 31.3101 18.211 31.3101C17.3221 31.3101 16.5984 32.0347 16.5984 32.9248C16.5984 33.8149 17.3221 34.5396 18.211 34.5396C18.9662 34.5396 19.5955 34.0197 19.7765 33.3187H45.0595L43.6042 35.1067H37.8144L31.8595 42.4557C31.2065 42.1485 30.4042 42.3139 29.9243 42.9047C29.3658 43.5978 29.468 44.6139 30.1603 45.181C30.8525 45.7403 31.8673 45.6379 32.4337 44.9447C32.9136 44.354 32.9057 43.5348 32.4731 42.9598L38.1763 35.9259H51.6831L56.5683 29.9238H47.8207Z" fill="url(#paint38_linear_34_120)"/>
<path d="M107.528 63.715H100.865L95.9796 69.7171H114.073L116.519 66.7161H123.182L128.059 60.714H109.966L107.528 63.715Z" fill="url(#paint39_linear_34_120)"/>
<path d="M103.028 77.9405L107.913 71.9384H89.8201L88.176 73.9627L73.7488 73.9785H72.734L72.0811 74.7898L67.4241 80.524C66.7711 80.2168 65.9688 80.3823 65.4889 80.973C64.9304 81.6662 65.0326 82.6823 65.7249 83.2494C66.4172 83.8086 67.4319 83.7062 67.9983 83.0131C68.4703 82.4223 68.4703 81.611 68.0377 81.0282L73.0958 74.7898L87.5231 74.774L85.6351 77.0976H79.3183L78.3035 77.1055L77.6506 77.9168L75.5266 80.5319C74.8737 80.2247 74.0713 80.3901 73.5914 80.9809C73.0329 81.674 73.1352 82.6901 73.8274 83.2573C74.5197 83.8165 75.5345 83.7141 76.1009 83.021C76.5807 82.4302 76.5728 81.611 76.1402 81.036L78.6653 77.9247H84.9822L84.9507 77.9562H89.3874L84.5023 83.9583H102.595L107.48 77.9562H103.044L103.028 77.9405Z" fill="url(#paint40_linear_34_120)"/>
<path d="M69.3592 35.9259L74.2444 29.9238H65.5125L58.2202 38.8875C58.0472 38.8245 57.8662 38.793 57.6696 38.793C56.7806 38.793 56.0569 39.5177 56.0569 40.4077C56.0569 41.2978 56.7806 42.0225 57.6696 42.0225C58.5585 42.0225 59.2822 41.2978 59.2822 40.4077C59.2822 39.9981 59.1327 39.6358 58.881 39.3444L61.6579 35.9259H69.3592Z" fill="url(#paint41_linear_34_120)"/>
<path d="M51.6045 26.2217H31.5527C31.3796 25.5207 30.7424 25.0008 29.9872 25.0008C29.0983 25.0008 28.3746 25.7255 28.3746 26.6155C28.3746 27.5056 29.0983 28.2303 29.9872 28.2303C30.7424 28.2303 31.3717 27.7104 31.5527 27.0094H52.0057L52.6507 26.2217L55.7737 22.3779H59.2822L63.4829 27.545H84.9664L80.0813 21.5429H76.6594L73.7016 17.9117H64.9697L67.9275 21.5429H58.5978L58.6371 21.5902H49.8424C49.6693 20.8891 49.0321 20.3693 48.2769 20.3693C47.388 20.3693 46.6643 21.0939 46.6643 21.984C46.6643 22.8741 47.388 23.5987 48.2769 23.5987C49.0321 23.5987 49.6614 23.0789 49.8424 22.3779H54.7353L51.6123 26.2138L51.6045 26.2217Z" fill="url(#paint42_linear_34_120)"/>
<path d="M13.3574 17.77C14.1126 17.77 14.7419 17.2501 14.9228 16.5491H35.3758L36.013 15.7614L39.136 11.9175H49.748L44.8628 5.91544H36.131L40.3711 11.1299H33.2046C33.0316 10.4288 32.3944 9.90895 31.6392 9.90895C30.7503 9.90895 30.0266 10.6336 30.0266 11.5237C30.0266 12.4138 30.7503 13.1384 31.6392 13.1384C32.3944 13.1384 33.0237 12.6186 33.2046 11.9175H38.0976L34.9746 15.7535H14.9228C14.7498 15.0525 14.1126 14.5326 13.3574 14.5326C12.4685 14.5326 11.7447 15.2573 11.7447 16.1473C11.7447 17.0374 12.4685 17.7621 13.3574 17.7621V17.77Z" fill="url(#paint43_linear_34_120)"/>
<path d="M32.8192 3.22947C33.5744 3.22947 34.2037 2.7096 34.3846 2.00857H54.4364L57.5594 5.85243H52.6664C52.4934 5.1514 51.8562 4.63153 51.101 4.63153C50.2121 4.63153 49.4884 5.35619 49.4884 6.24626C49.4884 7.13634 50.2121 7.861 51.101 7.861C51.8562 7.861 52.4855 7.34113 52.6664 6.6401H54.2791L58.5663 11.9096H70.6965L73.7724 15.6905H105.073L100.188 9.68841H88.058L84.9822 5.90756H62.1063V5.84455H58.59L55.4669 2.00069L54.8219 1.21302H34.3689C34.2116 0.519866 33.5822 0 32.827 0C31.9381 0 31.2144 0.724661 31.2144 1.61473C31.2144 2.50481 31.9381 3.22947 32.827 3.22947H32.8192Z" fill="url(#paint44_linear_34_120)"/>
<path d="M134.172 59.9342L137.476 55.8777H140.504L145.389 49.8756H108.008L107.984 49.852L94.8861 49.8283L92.5812 46.9848C93.0139 46.4019 93.0139 45.5906 92.5419 44.9999C91.9834 44.3067 90.9607 44.2043 90.2685 44.7636C89.5762 45.3228 89.474 46.3468 90.0325 47.04C90.5123 47.6228 91.3069 47.7883 91.9677 47.4889L93.8635 49.8283L94.5164 50.6396H95.5312L105.215 50.6554L103.846 52.3331L71.7428 52.3174L69.4379 49.4739C69.8706 48.891 69.8706 48.0797 69.3986 47.4889C68.84 46.7958 67.8174 46.6934 67.1251 47.2526C66.4329 47.8119 66.3306 48.8359 66.8891 49.529C67.3611 50.1119 68.1635 50.2773 68.8243 49.978L70.7201 52.3174L71.3731 53.1287L103.177 53.1523L101.588 55.1058L93.7298 55.1215H92.715L92.062 55.9328L90.1662 58.2722C89.5133 57.965 88.7109 58.1304 88.2311 58.7212C87.6725 59.4143 87.7748 60.4304 88.467 60.9976C89.1593 61.5568 90.1741 61.4544 90.7405 60.7613C91.2125 60.1784 91.2125 59.3592 90.7798 58.7763L93.0847 55.9328L106.135 55.9092L102.855 59.9421H134.156L134.172 59.9342Z" fill="url(#paint45_linear_34_120)"/>
<path d="M6.81242 99.3495H1.52611V122.2H6.81242V113.417H11.6739L18.0301 122.2H24.3548L17.9986 113.417H24.3548V108.132H6.81242V99.3495Z" fill="url(#paint46_linear_34_120)"/>
<path d="M19.0685 99.3495V104.603H20.0754L24.3548 99.3495H19.0685Z" fill="url(#paint47_linear_34_120)"/>
<path d="M46.1608 104.603L50.4402 99.3495H27.6115V122.2H32.8978V113.417H45.1618V122.2H50.4402V108.132H32.8978V104.603H46.1608Z" fill="url(#paint48_linear_34_120)"/>
<path d="M58.5349 99.3495L55.7895 116.915H52.7294V122.2H60.2577L62.9637 104.603H71.2787L75.5502 99.3495H58.5349Z" fill="url(#paint49_linear_34_120)"/>
<path d="M75.5581 108.132H70.2718V122.2H75.5581V108.132Z" fill="url(#paint50_linear_34_120)"/>
<path d="M100.66 108.132H95.3817V122.2H100.66V108.132Z" fill="url(#paint51_linear_34_120)"/>
<path d="M83.637 99.3495L80.8994 116.915H77.8315V122.2H85.3676L88.0737 104.603H96.3808L100.66 99.3495H83.637Z" fill="url(#paint52_linear_34_120)"/>
<path d="M109.203 114.89V108.132H103.917V122.2H110.249L121.467 106.628V122.2H126.746V99.3495H120.389L109.203 114.89Z" fill="url(#paint53_linear_34_120)"/>
<path d="M130.01 99.3495V104.603H148.56L152.839 99.3495H130.01Z" fill="url(#paint54_linear_34_120)"/>
<path d="M130.01 122.2H152.839V108.132H130.01V122.2ZM135.289 113.417H147.553V116.915H135.289V113.417Z" fill="url(#paint55_linear_34_120)"/>
<path d="M156.096 104.603H164.206V104.635H173.638V108.132H156.096V122.2H161.382V113.417H178.924V99.3495H160.375L156.096 104.603Z" fill="url(#paint56_linear_34_120)"/>
<path d="M198.646 99.3495L187.467 114.89V108.132H182.181V122.2H188.514L199.731 106.628V122.2H205.01V99.3495H198.646Z" fill="url(#paint57_linear_34_120)"/>
<path d="M103.917 99.3495V104.603H104.924L109.203 99.3495H103.917Z" fill="url(#paint58_linear_34_120)"/>
<path d="M182.181 104.603H183.188L187.467 99.3495H182.181V104.603Z" fill="url(#paint59_linear_34_120)"/>
<defs>
<linearGradient id="paint0_linear_34_120" x1="-313.839" y1="217.458" x2="3567.73" y2="-5324.21" gradientUnits="userSpaceOnUse">
<stop stop-color="#009FE3"/>
<stop offset="0.24" stop-color="#1585CF"/>
<stop offset="0.76" stop-color="#4A459C"/>
<stop offset="1" stop-color="#662483"/>
</linearGradient>
<linearGradient id="paint1_linear_34_120" x1="-331.405" y1="292.051" x2="3711.69" y2="-4211.96" gradientUnits="userSpaceOnUse">
<stop stop-color="#009FE3"/>
<stop offset="0.24" stop-color="#1585CF"/>
<stop offset="0.76" stop-color="#4A459C"/>
<stop offset="1" stop-color="#662483"/>
</linearGradient>
<linearGradient id="paint2_linear_34_120" x1="-709.665" y1="350.625" x2="3126.84" y2="-5309.29" gradientUnits="userSpaceOnUse">
<stop stop-color="#009FE3"/>
<stop offset="0.24" stop-color="#1585CF"/>
<stop offset="0.76" stop-color="#4A459C"/>
<stop offset="1" stop-color="#662483"/>
</linearGradient>
<linearGradient id="paint3_linear_34_120" x1="-1081.24" y1="415.083" x2="2411.29" y2="-5919.9" gradientUnits="userSpaceOnUse">
<stop stop-color="#009FE3"/>
<stop offset="0.24" stop-color="#1585CF"/>
<stop offset="0.76" stop-color="#4A459C"/>
<stop offset="1" stop-color="#662483"/>
</linearGradient>
<linearGradient id="paint4_linear_34_120" x1="-694.361" y1="478.79" x2="3348.74" y2="-4025.22" gradientUnits="userSpaceOnUse">
<stop stop-color="#009FE3"/>
<stop offset="0.24" stop-color="#1585CF"/>
<stop offset="0.76" stop-color="#4A459C"/>
<stop offset="1" stop-color="#662483"/>
</linearGradient>
<linearGradient id="paint5_linear_34_120" x1="-1138" y1="556.042" x2="2741.42" y2="-4991.51" gradientUnits="userSpaceOnUse">
<stop stop-color="#009FE3"/>
<stop offset="0.24" stop-color="#1585CF"/>
<stop offset="0.76" stop-color="#4A459C"/>
<stop offset="1" stop-color="#662483"/>
</linearGradient>
<linearGradient id="paint6_linear_34_120" x1="-980.364" y1="626.123" x2="3062.73" y2="-3877.88" gradientUnits="userSpaceOnUse">
<stop stop-color="#009FE3"/>
<stop offset="0.24" stop-color="#1585CF"/>
<stop offset="0.76" stop-color="#4A459C"/>
<stop offset="1" stop-color="#662483"/>
</linearGradient>
<linearGradient id="paint7_linear_34_120" x1="-3217.12" y1="7064" x2="20419.5" y2="631.789" gradientUnits="userSpaceOnUse">
<stop stop-color="#009FE3"/>
<stop offset="0.24" stop-color="#1585CF"/>
<stop offset="0.76" stop-color="#4A459C"/>
<stop offset="1" stop-color="#662483"/>
</linearGradient>
<linearGradient id="paint8_linear_34_120" x1="-1525.58" y1="749.594" x2="2407.9" y2="-4640.17" gradientUnits="userSpaceOnUse">
<stop stop-color="#009FE3"/>
<stop offset="0.24" stop-color="#1585CF"/>
<stop offset="0.76" stop-color="#4A459C"/>
<stop offset="1" stop-color="#662483"/>
</linearGradient>
<linearGradient id="paint9_linear_34_120" x1="-1350.25" y1="816.349" x2="2692.85" y2="-3687.66" gradientUnits="userSpaceOnUse">
<stop stop-color="#009FE3"/>
<stop offset="0.24" stop-color="#1585CF"/>
<stop offset="0.76" stop-color="#4A459C"/>
<stop offset="1" stop-color="#662483"/>
</linearGradient>
<linearGradient id="paint10_linear_34_120" x1="-1970.17" y1="882.76" x2="1911.39" y2="-4658.91" gradientUnits="userSpaceOnUse">
<stop stop-color="#009FE3"/>
<stop offset="0.24" stop-color="#1585CF"/>
<stop offset="0.76" stop-color="#4A459C"/>
<stop offset="1" stop-color="#662483"/>
</linearGradient>
<linearGradient id="paint11_linear_34_120" x1="-2219.04" y1="937.302" x2="1617.47" y2="-4722.61" gradientUnits="userSpaceOnUse">
<stop stop-color="#009FE3"/>
<stop offset="0.24" stop-color="#1585CF"/>
<stop offset="0.76" stop-color="#4A459C"/>
<stop offset="1" stop-color="#662483"/>
</linearGradient>
<linearGradient id="paint12_linear_34_120" x1="-2607.51" y1="1021.59" x2="1074.29" y2="-4980.27" gradientUnits="userSpaceOnUse">
<stop stop-color="#009FE3"/>
<stop offset="0.24" stop-color="#1585CF"/>
<stop offset="0.76" stop-color="#4A459C"/>
<stop offset="1" stop-color="#662483"/>
</linearGradient>
<linearGradient id="paint13_linear_34_120" x1="-2486.38" y1="1079.5" x2="1370.69" y2="-4526.91" gradientUnits="userSpaceOnUse">
<stop stop-color="#009FE3"/>
<stop offset="0.24" stop-color="#1585CF"/>
<stop offset="0.76" stop-color="#4A459C"/>
<stop offset="1" stop-color="#662483"/>
</linearGradient>
<linearGradient id="paint14_linear_34_120" x1="-2495.22" y1="1155.47" x2="1438.27" y2="-4234.3" gradientUnits="userSpaceOnUse">
<stop stop-color="#009FE3"/>
<stop offset="0.24" stop-color="#1585CF"/>
<stop offset="0.76" stop-color="#4A459C"/>
<stop offset="1" stop-color="#662483"/>
</linearGradient>
<linearGradient id="paint15_linear_34_120" x1="-2784.82" y1="1210.01" x2="1096.75" y2="-4331.66" gradientUnits="userSpaceOnUse">
<stop stop-color="#009FE3"/>
<stop offset="0.24" stop-color="#1585CF"/>
<stop offset="0.76" stop-color="#4A459C"/>
<stop offset="1" stop-color="#662483"/>
</linearGradient>
<linearGradient id="paint16_linear_34_120" x1="-3351.27" y1="1283.15" x2="330.54" y2="-4718.72" gradientUnits="userSpaceOnUse">
<stop stop-color="#009FE3"/>
<stop offset="0.24" stop-color="#1585CF"/>
<stop offset="0.76" stop-color="#4A459C"/>
<stop offset="1" stop-color="#662483"/>
</linearGradient>
<linearGradient id="paint17_linear_34_120" x1="-2618.55" y1="1336.87" x2="1374.8" y2="-3623.69" gradientUnits="userSpaceOnUse">
<stop stop-color="#009FE3"/>
<stop offset="0.24" stop-color="#1585CF"/>
<stop offset="0.76" stop-color="#4A459C"/>
<stop offset="1" stop-color="#662483"/>
</linearGradient>
<linearGradient id="paint18_linear_34_120" x1="-3381.23" y1="1413.83" x2="457.638" y2="-4240.14" gradientUnits="userSpaceOnUse">
<stop stop-color="#009FE3"/>
<stop offset="0.24" stop-color="#1585CF"/>
<stop offset="0.76" stop-color="#4A459C"/>
<stop offset="1" stop-color="#662483"/>
</linearGradient>
<linearGradient id="paint19_linear_34_120" x1="-3092.88" y1="1464.35" x2="812.244" y2="-3688.94" gradientUnits="userSpaceOnUse">
<stop stop-color="#009FE3"/>
<stop offset="0.24" stop-color="#1585CF"/>
<stop offset="0.76" stop-color="#4A459C"/>
<stop offset="1" stop-color="#662483"/>
</linearGradient>
<linearGradient id="paint20_linear_34_120" x1="-3598.46" y1="1554.79" x2="283.104" y2="-3986.88" gradientUnits="userSpaceOnUse">
<stop stop-color="#009FE3"/>
<stop offset="0.24" stop-color="#1585CF"/>
<stop offset="0.76" stop-color="#4A459C"/>
<stop offset="1" stop-color="#662483"/>
</linearGradient>
<linearGradient id="paint21_linear_34_120" x1="-3603.91" y1="1619.43" x2="329.567" y2="-3770.34" gradientUnits="userSpaceOnUse">
<stop stop-color="#009FE3"/>
<stop offset="0.24" stop-color="#1585CF"/>
<stop offset="0.76" stop-color="#4A459C"/>
<stop offset="1" stop-color="#662483"/>
</linearGradient>
<linearGradient id="paint22_linear_34_120" x1="-3794.89" y1="1373.81" x2="-939.589" y2="-3541.89" gradientUnits="userSpaceOnUse">
<stop stop-color="#009FE3"/>
<stop offset="0.24" stop-color="#1585CF"/>
<stop offset="0.76" stop-color="#4A459C"/>
<stop offset="1" stop-color="#662483"/>
</linearGradient>
<linearGradient id="paint23_linear_34_120" x1="-4201.43" y1="1796.86" x2="-319.867" y2="-3744.8" gradientUnits="userSpaceOnUse">
<stop stop-color="#009FE3"/>
<stop offset="0.24" stop-color="#1585CF"/>
<stop offset="0.76" stop-color="#4A459C"/>
<stop offset="1" stop-color="#662483"/>
</linearGradient>
<linearGradient id="paint24_linear_34_120" x1="-3329.19" y1="1835.13" x2="713.91" y2="-2668.88" gradientUnits="userSpaceOnUse">
<stop stop-color="#009FE3"/>
<stop offset="0.24" stop-color="#1585CF"/>
<stop offset="0.76" stop-color="#4A459C"/>
<stop offset="1" stop-color="#662483"/>
</linearGradient>
<linearGradient id="paint25_linear_34_120" x1="-3481.55" y1="1913.59" x2="561.546" y2="-2590.42" gradientUnits="userSpaceOnUse">
<stop stop-color="#009FE3"/>
<stop offset="0.24" stop-color="#1585CF"/>
<stop offset="0.76" stop-color="#4A459C"/>
<stop offset="1" stop-color="#662483"/>
</linearGradient>
<linearGradient id="paint26_linear_34_120" x1="-4562.65" y1="2020.7" x2="-629.17" y2="-3369.07" gradientUnits="userSpaceOnUse">
<stop stop-color="#009FE3"/>
<stop offset="0.24" stop-color="#1585CF"/>
<stop offset="0.76" stop-color="#4A459C"/>
<stop offset="1" stop-color="#662483"/>
</linearGradient>
<linearGradient id="paint27_linear_34_120" x1="-5654.57" y1="2093.48" x2="-1972.92" y2="-3908.48" gradientUnits="userSpaceOnUse">
<stop stop-color="#009FE3"/>
<stop offset="0.24" stop-color="#1585CF"/>
<stop offset="0.76" stop-color="#4A459C"/>
<stop offset="1" stop-color="#662483"/>
</linearGradient>
<linearGradient id="paint28_linear_34_120" x1="-5304.03" y1="2136.16" x2="-1467.24" y2="-3523.92" gradientUnits="userSpaceOnUse">
<stop stop-color="#009FE3"/>
<stop offset="0.24" stop-color="#1585CF"/>
<stop offset="0.76" stop-color="#4A459C"/>
<stop offset="1" stop-color="#662483"/>
</linearGradient>
<linearGradient id="paint29_linear_34_120" x1="-4123.32" y1="2232.67" x2="-24.6137" y2="-2406.77" gradientUnits="userSpaceOnUse">
<stop stop-color="#009FE3"/>
<stop offset="0.24" stop-color="#1585CF"/>
<stop offset="0.76" stop-color="#4A459C"/>
<stop offset="1" stop-color="#662483"/>
</linearGradient>
<linearGradient id="paint30_linear_34_120" x1="-5412.38" y1="2265.25" x2="-1530.82" y2="-3276.42" gradientUnits="userSpaceOnUse">
<stop stop-color="#009FE3"/>
<stop offset="0.24" stop-color="#1585CF"/>
<stop offset="0.76" stop-color="#4A459C"/>
<stop offset="1" stop-color="#662483"/>
</linearGradient>
<linearGradient id="paint31_linear_34_120" x1="-5332.65" y1="2342.81" x2="-1399.45" y2="-3046.81" gradientUnits="userSpaceOnUse">
<stop stop-color="#009FE3"/>
<stop offset="0.24" stop-color="#1585CF"/>
<stop offset="0.76" stop-color="#4A459C"/>
<stop offset="1" stop-color="#662483"/>
</linearGradient>
<linearGradient id="paint32_linear_34_120" x1="-5767.91" y1="2412.58" x2="-1888.49" y2="-3134.97" gradientUnits="userSpaceOnUse">
<stop stop-color="#009FE3"/>
<stop offset="0.24" stop-color="#1585CF"/>
<stop offset="0.76" stop-color="#4A459C"/>
<stop offset="1" stop-color="#662483"/>
</linearGradient>
<linearGradient id="paint33_linear_34_120" x1="-332.584" y1="864.069" x2="359.077" y2="651.191" gradientUnits="userSpaceOnUse">
<stop stop-color="#009FE3"/>
<stop offset="0.24" stop-color="#1585CF"/>
<stop offset="0.76" stop-color="#4A459C"/>
<stop offset="1" stop-color="#662483"/>
</linearGradient>
<linearGradient id="paint34_linear_34_120" x1="-316.375" y1="1156.98" x2="561.049" y2="962.998" gradientUnits="userSpaceOnUse">
<stop stop-color="#009FE3"/>
<stop offset="0.24" stop-color="#1585CF"/>
<stop offset="0.76" stop-color="#4A459C"/>
<stop offset="1" stop-color="#662483"/>
</linearGradient>
<linearGradient id="paint35_linear_34_120" x1="-465.848" y1="816" x2="604.438" y2="360.741" gradientUnits="userSpaceOnUse">
<stop stop-color="#009FE3"/>
<stop offset="0.24" stop-color="#1585CF"/>
<stop offset="0.76" stop-color="#4A459C"/>
<stop offset="1" stop-color="#662483"/>
</linearGradient>
<linearGradient id="paint36_linear_34_120" x1="-1425.08" y1="1795.49" x2="1934.23" y2="91.0808" gradientUnits="userSpaceOnUse">
<stop stop-color="#009FE3"/>
<stop offset="0.24" stop-color="#1585CF"/>
<stop offset="0.76" stop-color="#4A459C"/>
<stop offset="1" stop-color="#662483"/>
</linearGradient>
<linearGradient id="paint37_linear_34_120" x1="-1367.84" y1="1139.76" x2="1087.02" y2="-792.649" gradientUnits="userSpaceOnUse">
<stop stop-color="#009FE3"/>
<stop offset="0.24" stop-color="#1585CF"/>
<stop offset="0.76" stop-color="#4A459C"/>
<stop offset="1" stop-color="#662483"/>
</linearGradient>
<linearGradient id="paint38_linear_34_120" x1="-308.606" y1="544.902" x2="888.34" y2="6.57158" gradientUnits="userSpaceOnUse">
<stop stop-color="#009FE3"/>
<stop offset="0.24" stop-color="#1585CF"/>
<stop offset="0.76" stop-color="#4A459C"/>
<stop offset="1" stop-color="#662483"/>
</linearGradient>
<linearGradient id="paint39_linear_34_120" x1="-616.838" y1="1346.55" x2="1006.77" y2="822.081" gradientUnits="userSpaceOnUse">
<stop stop-color="#009FE3"/>
<stop offset="0.24" stop-color="#1585CF"/>
<stop offset="0.76" stop-color="#4A459C"/>
<stop offset="1" stop-color="#662483"/>
</linearGradient>
<linearGradient id="paint40_linear_34_120" x1="-324.21" y1="847.638" x2="892.916" y2="454.036" gradientUnits="userSpaceOnUse">
<stop stop-color="#009FE3"/>
<stop offset="0.24" stop-color="#1585CF"/>
<stop offset="0.76" stop-color="#4A459C"/>
<stop offset="1" stop-color="#662483"/>
</linearGradient>
<linearGradient id="paint41_linear_34_120" x1="-995.158" y1="875.943" x2="998.497" y2="-650.629" gradientUnits="userSpaceOnUse">
<stop stop-color="#009FE3"/>
<stop offset="0.24" stop-color="#1585CF"/>
<stop offset="0.76" stop-color="#4A459C"/>
<stop offset="1" stop-color="#662483"/>
</linearGradient>
<linearGradient id="paint42_linear_34_120" x1="-243.888" y1="1064.75" x2="729.615" y2="860.429" gradientUnits="userSpaceOnUse">
<stop stop-color="#009FE3"/>
<stop offset="0.24" stop-color="#1585CF"/>
<stop offset="0.76" stop-color="#4A459C"/>
<stop offset="1" stop-color="#662483"/>
</linearGradient>
<linearGradient id="paint43_linear_34_120" x1="-358.254" y1="825.85" x2="982.433" y2="344.467" gradientUnits="userSpaceOnUse">
<stop stop-color="#009FE3"/>
<stop offset="0.24" stop-color="#1585CF"/>
<stop offset="0.76" stop-color="#4A459C"/>
<stop offset="1" stop-color="#662483"/>
</linearGradient>
<linearGradient id="paint44_linear_34_120" x1="-207.926" y1="801.867" x2="526.905" y2="622.179" gradientUnits="userSpaceOnUse">
<stop stop-color="#009FE3"/>
<stop offset="0.24" stop-color="#1585CF"/>
<stop offset="0.76" stop-color="#4A459C"/>
<stop offset="1" stop-color="#662483"/>
</linearGradient>
<linearGradient id="paint45_linear_34_120" x1="-198.69" y1="744.612" x2="488.604" y2="574.528" gradientUnits="userSpaceOnUse">
<stop stop-color="#009FE3"/>
<stop offset="0.24" stop-color="#1585CF"/>
<stop offset="0.76" stop-color="#4A459C"/>
<stop offset="1" stop-color="#662483"/>
</linearGradient>
<linearGradient id="paint46_linear_34_120" x1="-139.165" y1="188.787" x2="943.377" y2="-1058.48" gradientUnits="userSpaceOnUse">
<stop stop-color="#009FE3"/>
<stop offset="0.24" stop-color="#1585CF"/>
<stop offset="0.76" stop-color="#4A459C"/>
<stop offset="1" stop-color="#662483"/>
</linearGradient>
<linearGradient id="paint47_linear_34_120" x1="-1358.75" y1="758.909" x2="3354.19" y2="-4632.62" gradientUnits="userSpaceOnUse">
<stop stop-color="#009FE3"/>
<stop offset="0.24" stop-color="#1585CF"/>
<stop offset="0.76" stop-color="#4A459C"/>
<stop offset="1" stop-color="#662483"/>
</linearGradient>
<linearGradient id="paint48_linear_34_120" x1="-289.458" y1="263.562" x2="793.085" y2="-983.705" gradientUnits="userSpaceOnUse">
<stop stop-color="#009FE3"/>
<stop offset="0.24" stop-color="#1585CF"/>
<stop offset="0.76" stop-color="#4A459C"/>
<stop offset="1" stop-color="#662483"/>
</linearGradient>
<linearGradient id="paint49_linear_34_120" x1="-450.105" y1="321.975" x2="632.41" y2="-925.618" gradientUnits="userSpaceOnUse">
<stop stop-color="#009FE3"/>
<stop offset="0.24" stop-color="#1585CF"/>
<stop offset="0.76" stop-color="#4A459C"/>
<stop offset="1" stop-color="#662483"/>
</linearGradient>
<linearGradient id="paint50_linear_34_120" x1="-2354.32" y1="528.085" x2="-1306.4" y2="-2681.9" gradientUnits="userSpaceOnUse">
<stop stop-color="#009FE3"/>
<stop offset="0.24" stop-color="#1585CF"/>
<stop offset="0.76" stop-color="#4A459C"/>
<stop offset="1" stop-color="#662483"/>
</linearGradient>
<linearGradient id="paint51_linear_34_120" x1="-2983.76" y1="645.048" x2="-1937.1" y2="-2565.86" gradientUnits="userSpaceOnUse">
<stop stop-color="#009FE3"/>
<stop offset="0.24" stop-color="#1585CF"/>
<stop offset="0.76" stop-color="#4A459C"/>
<stop offset="1" stop-color="#662483"/>
</linearGradient>
<linearGradient id="paint52_linear_34_120" x1="-594.608" y1="394.03" x2="487.934" y2="-853.237" gradientUnits="userSpaceOnUse">
<stop stop-color="#009FE3"/>
<stop offset="0.24" stop-color="#1585CF"/>
<stop offset="0.76" stop-color="#4A459C"/>
<stop offset="1" stop-color="#662483"/>
</linearGradient>
<linearGradient id="paint53_linear_34_120" x1="-710.091" y1="499.042" x2="372.451" y2="-748.224" gradientUnits="userSpaceOnUse">
<stop stop-color="#009FE3"/>
<stop offset="0.24" stop-color="#1585CF"/>
<stop offset="0.76" stop-color="#4A459C"/>
<stop offset="1" stop-color="#662483"/>
</linearGradient>
<linearGradient id="paint54_linear_34_120" x1="-925.009" y1="2252.26" x2="1429.37" y2="1628.57" gradientUnits="userSpaceOnUse">
<stop stop-color="#009FE3"/>
<stop offset="0.24" stop-color="#1585CF"/>
<stop offset="0.76" stop-color="#4A459C"/>
<stop offset="1" stop-color="#662483"/>
</linearGradient>
<linearGradient id="paint55_linear_34_120" x1="-860.455" y1="847.297" x2="815.758" y2="-341.691" gradientUnits="userSpaceOnUse">
<stop stop-color="#009FE3"/>
<stop offset="0.24" stop-color="#1585CF"/>
<stop offset="0.76" stop-color="#4A459C"/>
<stop offset="1" stop-color="#662483"/>
</linearGradient>
<linearGradient id="paint56_linear_34_120" x1="-1041.99" y1="621.587" x2="40.5517" y2="-625.679" gradientUnits="userSpaceOnUse">
<stop stop-color="#009FE3"/>
<stop offset="0.24" stop-color="#1585CF"/>
<stop offset="0.76" stop-color="#4A459C"/>
<stop offset="1" stop-color="#662483"/>
</linearGradient>
<linearGradient id="paint57_linear_34_120" x1="-1161.11" y1="723.505" x2="-78.5696" y2="-523.761" gradientUnits="userSpaceOnUse">
<stop stop-color="#009FE3"/>
<stop offset="0.24" stop-color="#1585CF"/>
<stop offset="0.76" stop-color="#4A459C"/>
<stop offset="1" stop-color="#662483"/>
</linearGradient>
<linearGradient id="paint58_linear_34_120" x1="-3470.33" y1="1817.34" x2="1242.6" y2="-3574.18" gradientUnits="userSpaceOnUse">
<stop stop-color="#009FE3"/>
<stop offset="0.24" stop-color="#1585CF"/>
<stop offset="0.76" stop-color="#4A459C"/>
<stop offset="1" stop-color="#662483"/>
</linearGradient>
<linearGradient id="paint59_linear_34_120" x1="43.8087" y1="207.269" x2="220.58" y2="73.5849" gradientUnits="userSpaceOnUse">
<stop stop-color="#009FE3"/>
<stop offset="0.24" stop-color="#1585CF"/>
<stop offset="0.76" stop-color="#4A459C"/>
<stop offset="1" stop-color="#662483"/>
</linearGradient>
</defs>
</svg>
