<svg width="33" height="33" viewBox="0 0 33 33" fill="none" xmlns="http://www.w3.org/2000/svg">
<path d="M5.60568 23.8678L5.60568 23.8679C5.5202 24.1873 5.81245 24.4798 6.13222 24.3943L5.60568 23.8678ZM5.60568 23.8678L6.26084 21.4192C6.26085 21.4191 6.26085 21.4191 6.26085 21.4191M5.60568 23.8678L6.26085 21.4191M6.26085 21.4191C6.44525 20.73 6.33184 20.032 6.04293 19.4519L6.26085 21.4191ZM8.58083 23.7392L6.13227 24.3943L6.04291 19.4519C5.37571 18.1123 5 16.6015 5 15C5 9.47715 9.47715 5 15 5C15.7289 5 16.4387 5.07782 17.122 5.22539C16.8815 5.87185 16.75 6.57113 16.75 7.3C16.75 10.5861 19.4139 13.25 22.7 13.25C23.4288 13.25 24.1281 13.1186 24.7746 12.878C24.9222 13.5613 25 14.2711 25 15C25 20.5228 20.5228 25 15 25C13.3985 25 11.8877 24.6243 10.5482 23.9571L10.548 23.957C9.96805 23.6682 9.27009 23.5547 8.58085 23.7392C8.58084 23.7392 8.58083 23.7392 8.58083 23.7392ZM25 7.3C25 8.57026 23.9703 9.6 22.7 9.6C21.4297 9.6 20.4 8.57026 20.4 7.3C20.4 6.02974 21.4297 5 22.7 5C23.9703 5 25 6.02974 25 7.3Z" stroke="black" stroke-width="2"/>
</svg>
