<svg width="33" height="33" viewBox="0 0 33 33" fill="none" xmlns="http://www.w3.org/2000/svg">
<path d="M25.1066 9.0576L14.9839 19.8114C13.9758 20.8823 10.9835 21.3782 10.315 20.6681C9.64655 19.9579 10.1028 16.7791 11.1109 15.7082L21.2443 4.94315C21.4942 4.65352 21.7967 4.4207 22.1337 4.25871C22.4706 4.09673 22.835 4.00892 23.2047 4.00064C23.5744 3.99238 23.942 4.06378 24.285 4.21056C24.6281 4.35734 24.9396 4.57647 25.2008 4.85467C25.4619 5.13287 25.6673 5.46439 25.8045 5.82924C25.9417 6.19409 26.008 6.58468 25.9992 6.97746C25.9904 7.37025 25.9067 7.7571 25.7534 8.11461C25.5999 8.47211 25.38 8.79291 25.1066 9.0576Z" stroke="black" stroke-width="2" stroke-linecap="round" stroke-linejoin="round"/>
<path d="M14 6H8.44444C7.2657 6 6.13531 6.46824 5.30181 7.30174C4.46832 8.13524 4 9.2657 4 10.4444V21.5556C4 22.7343 4.46832 23.8648 5.30181 24.6982C6.13531 25.5318 7.2657 26 8.44444 26H20.6667C23.1222 26 24 24 24 21.5556V16" stroke="black" stroke-width="2" stroke-linecap="round" stroke-linejoin="round"/>
</svg>
