<svg width="30" height="30" viewBox="0 0 30 30" fill="none" xmlns="http://www.w3.org/2000/svg">
<path d="M15 4C16.375 4 17.4888 5.50792 18.7079 6.02583C19.9271 6.54375 21.8337 6.25958 22.7596 7.24042C23.6854 8.22125 23.4517 10.0225 23.9742 11.2921C24.4967 12.5617 26 13.625 26 15C26 16.375 24.4921 17.4888 23.9742 18.7079C23.4563 19.9271 23.7404 21.8337 22.7596 22.7596C21.7787 23.6854 19.9775 23.4608 18.7079 23.9742C17.4383 24.4875 16.375 26 15 26C13.625 26 12.5113 24.4921 11.2921 23.9742C10.0729 23.4563 8.16625 23.7404 7.24042 22.7596C6.31458 21.7787 6.53917 19.9775 6.02583 18.7079C5.5125 17.4383 4 16.375 4 15C4 13.625 5.50792 12.5113 6.02583 11.2921C6.54375 10.0729 6.25958 8.16625 7.24042 7.24042C8.22125 6.31458 10.0225 6.53917 11.2921 6.02583C12.5617 5.5125 13.625 4 15 4ZM15 7.47417C13.5115 7.47417 12.0565 7.91555 10.8189 8.7425C9.58125 9.56945 8.61665 10.7448 8.04704 12.12C7.47742 13.4952 7.32839 15.0083 7.61877 16.4682C7.90916 17.9281 8.62593 19.2691 9.67843 20.3216C10.7309 21.3741 12.0719 22.0908 13.5318 22.3812C14.9917 22.6716 16.5048 22.5226 17.88 21.953C19.2552 21.3834 20.4306 20.4187 21.2575 19.1811C22.0845 17.9435 22.5258 16.4885 22.5258 15C22.5198 13.0059 21.7249 11.0952 20.3149 9.68511C18.9048 8.27505 16.9941 7.48021 15 7.47417ZM18.4925 11.6679L19.2304 12.3646C19.3059 12.4642 19.3467 12.5857 19.3467 12.7106C19.3467 12.8356 19.3059 12.9571 19.2304 13.0567L14.5783 18.2404C14.4864 18.3447 14.3726 18.4275 14.2451 18.4829C14.1176 18.5384 13.9794 18.5651 13.8404 18.5613C13.7021 18.5605 13.5654 18.5317 13.4386 18.4765C13.3117 18.4214 13.1974 18.341 13.1025 18.2404L10.5863 15.7333C10.5402 15.6938 10.5024 15.6456 10.4751 15.5914C10.4478 15.5371 10.4315 15.478 10.4273 15.4175C10.423 15.3569 10.4308 15.2962 10.4502 15.2387C10.4697 15.1811 10.5003 15.1281 10.5404 15.0825L10.5863 15.0321L11.3333 14.34C11.4233 14.2432 11.5477 14.1856 11.6797 14.1796C11.8117 14.1736 11.9408 14.2197 12.0392 14.3079L12.0712 14.34L13.8542 16.1733L17.7913 11.6817C17.8835 11.5888 18.0082 11.5354 18.1391 11.5329C18.27 11.5303 18.3967 11.5787 18.4925 11.6679Z" fill="#009FE3"/>
</svg>
