<svg width="30" height="30" viewBox="0 0 30 30" fill="none" xmlns="http://www.w3.org/2000/svg">
<path d="M25.628 8.26464L25.628 8.26465C25.8917 8.78224 25.9999 9.33856 26.0507 9.96149M25.628 8.26464L25.951 9.96962M25.628 8.26464C25.2127 7.44976 24.5503 6.78723 23.7354 6.37203L23.69 6.46113L23.7354 6.37203C23.2177 6.1083 22.6614 6.00016 22.0386 5.94925C21.4354 5.89998 20.6921 5.89999 19.7783 5.9L19.7747 5.9H10.2253L10.2217 5.9C9.30781 5.89999 8.56464 5.89998 7.96148 5.94925L7.96148 5.94925C7.33857 6.00016 6.78224 6.1083 6.26465 6.37203C5.44976 6.78723 4.78723 7.44976 4.37203 8.26465C4.1083 8.78224 4.00016 9.33857 3.94925 9.96148L3.94925 9.96148C3.89998 10.5646 3.89999 11.3078 3.9 12.2217L3.9 12.2253V17.2619L3.9 17.2655C3.89999 18.1794 3.89998 18.9226 3.94925 19.5257L4.04892 19.5176L3.94925 19.5257C4.00016 20.1486 4.1083 20.7049 4.37203 21.2226L4.37203 21.2226C4.78723 22.0375 5.44976 22.6999 6.26464 23.1152L6.26465 23.1152C6.78224 23.3789 7.33856 23.4871 7.96148 23.5379C8.56453 23.5872 9.30754 23.5872 10.2212 23.5872H10.2253H19.7747H19.7788C20.6925 23.5872 21.4355 23.5872 22.0385 23.5379M25.628 8.26464L25.951 19.5176M26.0507 9.96149L25.951 9.96962M26.0507 9.96149C26.0507 9.96149 26.0507 9.96148 26.0507 9.96148L25.951 9.96962M26.0507 9.96149C26.1 10.5645 26.1 11.3075 26.1 12.2211V12.2253V17.2619V17.2661C26.1 18.1797 26.1 18.9227 26.0507 19.5257M25.951 9.96962C26 10.5686 26 11.3082 26 12.2252V12.2253V17.2619V17.262C26 18.179 26 18.9186 25.951 19.5176M26.0507 19.5257L25.951 19.5176M26.0507 19.5257C26.0507 19.5257 26.0507 19.5257 26.0507 19.5257L25.951 19.5176M26.0507 19.5257C25.9999 20.1486 25.8917 20.7049 25.628 21.2226L25.628 21.2226C25.2127 22.0375 24.5503 22.6999 23.7354 23.1152L23.7354 23.1152C23.2177 23.3789 22.6614 23.4871 22.0385 23.5379M22.0385 23.5379L22.0304 23.4382M22.0385 23.5379C22.0385 23.5379 22.0386 23.5379 22.0386 23.5379L22.0304 23.4382M22.0304 23.4382C22.6471 23.3879 23.1887 23.2814 23.69 23.0261L22.0304 23.4382ZM7.12373 8.05809C7.33011 7.95294 7.60967 7.87662 8.11558 7.83528C8.63249 7.79304 9.29812 7.79231 10.2615 7.79231H19.7385C20.7019 7.79231 21.3675 7.79304 21.8844 7.83528C22.3903 7.87662 22.6699 7.95294 22.8763 8.05809C23.335 8.29186 23.7081 8.66489 23.9419 9.12371C24.0471 9.3301 24.1233 9.60966 24.1647 10.1156L24.2644 10.1074L24.1647 10.1156C24.1955 10.4919 24.2043 10.9477 24.2068 11.541H5.79327C5.79576 10.9477 5.80454 10.4919 5.83528 10.1156C5.87662 9.60966 5.95294 9.33011 6.05809 9.12373C6.29187 8.66491 6.66491 8.29187 7.12373 8.05809ZM5.79231 17.2256V13.4333H24.2077V17.2256C24.2077 18.1891 24.2069 18.8547 24.1647 19.3716C24.1234 19.8775 24.0471 20.1571 23.942 20.3635C23.7081 20.8222 23.335 21.1953 22.8763 21.4291C22.6699 21.5342 22.3903 21.6105 21.8844 21.6519C21.3675 21.6941 20.7019 21.6949 19.7385 21.6949H10.2615C9.29812 21.6949 8.63249 21.6941 8.11558 21.6519C7.60967 21.6105 7.3301 21.5342 7.12371 21.4291C6.66489 21.1952 6.29186 20.8222 6.05809 20.3635C5.95294 20.1571 5.87662 19.8775 5.83528 19.3716C5.79304 18.8547 5.79231 18.1891 5.79231 17.2256ZM8.23077 17.1821C7.70823 17.1821 7.28462 17.6057 7.28462 18.1282C7.28462 18.6507 7.70823 19.0744 8.23077 19.0744H13.8718C14.3943 19.0744 14.8179 18.6507 14.8179 18.1282C14.8179 17.6057 14.3943 17.1821 13.8718 17.1821H8.23077Z" fill="#009FE3" stroke="black" stroke-width="0.2"/>
</svg>
