<svg width="30" height="30" viewBox="0 0 30 30" fill="none" xmlns="http://www.w3.org/2000/svg">
<path fill-rule="evenodd" clip-rule="evenodd" d="M13.9 4H16.1C17.8575 4 19.294 5.24892 19.3944 6.82373L19.4 7V8H22.7C24.5225 8 26 9.34315 26 11V21C26 22.6569 24.5225 24 22.7 24H7.3C5.47746 24 4 22.6569 4 21V11C4 9.34315 5.47746 8 7.3 8H10.6V7C10.6 5.40232 11.9738 4.09634 13.7061 4.00509L13.9 4ZM23.8 18H6.2V21C6.2 21.5523 6.69249 22 7.3 22H22.7C23.3075 22 23.8 21.5523 23.8 21V18ZM22.7 10H7.3C6.69249 10 6.2 10.4477 6.2 11V16H23.8V11C23.8 10.4477 23.3075 10 22.7 10ZM16.1 6H13.9C13.3359 6 12.8709 6.38604 12.8074 6.88338L12.8 7V8H17.2V7C17.2 6.48716 16.7754 6.06449 16.2283 6.00673L16.1 6Z" fill="#009FE3"/>
</svg>
