<svg width="30" height="30" viewBox="0 0 30 30" fill="none" xmlns="http://www.w3.org/2000/svg">
<path d="M4.36673 18.9329L9.32829 13.9729C9.22445 13.4663 9.17295 12.9503 9.17461 12.4332C9.17499 11.0151 9.53216 9.62009 10.2131 8.37698C10.894 7.13387 11.8767 6.0828 13.0704 5.32093C14.2641 4.55907 15.6302 4.11099 17.0425 4.01811C18.4547 3.92524 19.8676 4.19057 21.1504 4.78958C21.3129 4.86396 21.4549 4.97698 21.5639 5.11881C21.673 5.26064 21.7458 5.42699 21.7761 5.60342C21.8063 5.77762 21.7941 5.95653 21.7406 6.12501C21.6871 6.29349 21.5938 6.44655 21.4687 6.57124L16.6938 11.3444L18.6696 13.324L23.4336 8.53988C23.5591 8.41648 23.7124 8.3251 23.8805 8.27343C24.0486 8.22175 24.2266 8.21129 24.3996 8.24293C24.5746 8.27218 24.7399 8.34349 24.8813 8.45075C25.0228 8.55801 25.1362 8.69803 25.2119 8.85882C25.8117 10.1483 26.0763 11.5689 25.981 12.9884C25.8857 14.4079 25.4337 15.7802 24.6668 16.9776C23.9 18.175 22.8434 19.1587 21.5953 19.837C20.3471 20.5154 18.948 20.8665 17.528 20.8576C17.0119 20.8592 16.4969 20.8076 15.9913 20.7036L11.0407 25.6747C10.9386 25.7778 10.8172 25.8596 10.6835 25.9154C10.5497 25.9713 10.4062 26 10.2613 26C10.1164 26 9.97294 25.9713 9.83918 25.9154C9.70541 25.8596 9.58401 25.7778 9.48196 25.6747C9.37908 25.5724 9.29742 25.4508 9.24169 25.3168C9.18596 25.1828 9.15727 25.039 9.15727 24.8938C9.15727 24.7486 9.18596 24.6049 9.24169 24.4709C9.29742 24.3369 9.37908 24.2152 9.48196 24.113L14.8606 18.724C14.9951 18.5902 15.1617 18.4936 15.3445 18.4435C15.5272 18.3933 15.7198 18.3915 15.9035 18.438C16.4334 18.5802 16.9794 18.6542 17.528 18.658C18.349 18.6652 19.1634 18.5097 19.9241 18.2002C20.6849 17.8908 21.377 17.4336 21.9606 16.855C22.5442 16.2764 23.0078 15.5878 23.3247 14.8289C23.6415 14.07 23.8054 13.2558 23.8068 12.4332C23.8082 12.0647 23.7789 11.6969 23.719 11.3334L19.4161 15.6556C19.314 15.7586 19.1926 15.8405 19.0588 15.8963C18.9251 15.9521 18.7816 15.9809 18.6367 15.9809C18.4918 15.9809 18.3483 15.9521 18.2146 15.8963C18.0808 15.8405 17.9594 15.7586 17.8573 15.6556L14.3667 12.1252C14.1688 11.9201 14.0582 11.6461 14.0582 11.3609C14.0582 11.0756 14.1688 10.8016 14.3667 10.5965L18.6367 6.2853C18.2738 6.22592 17.9067 6.19649 17.539 6.19731C15.8902 6.20023 14.31 6.8585 13.1451 8.02763C11.9803 9.19676 11.3261 10.7812 11.3261 12.4332C11.3299 12.9829 11.4037 13.5298 11.5456 14.0608C11.5921 14.2449 11.5902 14.4378 11.5402 14.6209C11.4902 14.804 11.3937 14.971 11.2602 15.1057L5.88154 20.4946C5.67484 20.7017 5.3945 20.8181 5.10218 20.8181C4.80987 20.8181 4.52952 20.7017 4.32282 20.4946C4.11613 20.2876 4 20.0067 4 19.7138C4 19.4209 4.11613 19.14 4.32282 18.9329H4.36673Z" fill="#009FE3"/>
</svg>
