<svg width="30" height="30" viewBox="0 0 30 30" fill="none" xmlns="http://www.w3.org/2000/svg">
<path d="M22.3333 8.88889V7.91111C22.3333 6.5421 22.3333 5.85758 22.0669 5.33469C21.8326 4.87473 21.4586 4.50078 20.9987 4.26643C20.4758 4 19.7912 4 18.4222 4H7.91111C6.54209 4 5.85758 4 5.33469 4.26643C4.87473 4.50078 4.50078 4.87473 4.26643 5.33469C4 5.85758 4 6.5421 4 7.91111V8.88889M4 8.88889V19.6444C4 21.0135 4 21.698 4.26643 22.2209C4.50078 22.6808 4.87473 23.0548 5.33469 23.2891C5.85758 23.5556 6.54209 23.5556 7.91111 23.5556H22.0889C23.4579 23.5556 24.1425 23.5556 24.6653 23.2891C25.1253 23.0548 25.4993 22.6808 25.7336 22.2209C26 21.698 26 21.0135 26 19.6444V12.8C26 11.431 26 10.7465 25.7336 10.2236C25.4993 9.76362 25.1253 9.38967 24.6653 9.15532C24.1425 8.88889 23.4579 8.88889 22.0889 8.88889H4ZM26 13.7778H23.5556C22.2055 13.7778 21.1111 14.8722 21.1111 16.2222C21.1111 17.5723 22.2055 18.6667 23.5556 18.6667H26" stroke="#009FE3" stroke-width="2" stroke-linecap="round" stroke-linejoin="round"/>
</svg>
