<svg width="30" height="30" viewBox="0 0 30 30" fill="none" xmlns="http://www.w3.org/2000/svg">
<path d="M26 10.111H23.8M23.8 10.111H22.7C20.5 7.91297 17.2 5.71078 15 7.91102M23.8 10.111V18.911M15 7.91102L11.6995 11.2128C11.6122 11.3001 11.5686 11.3438 11.5334 11.3824C10.7705 12.2218 10.7708 13.5037 11.5342 14.3428C11.5693 14.3814 11.6131 14.425 11.7003 14.5123C11.7876 14.5995 11.8313 14.6432 11.8699 14.6783C12.7092 15.4409 13.9906 15.4408 14.8296 14.6778C14.8682 14.6427 14.9119 14.5991 14.9991 14.5118L16.0996 13.4114M15 7.91102C12.8 5.71078 9.5 7.91305 7.3 10.1111H6.2M23.8 18.911V22.211H26M23.8 18.911H20.6888M6.2 10.1111H4M6.2 10.1111V18.911M6.2 18.911H8.4L8.82017 19.7514C9.38519 20.8814 10.9419 21.0217 11.7 20.011C12.2998 20.6108 12.5997 20.9106 12.9232 21.071C13.5387 21.3759 14.2614 21.3759 14.8768 21.071C15.2003 20.9106 15.5003 20.6108 16.1 20.011L16.65 20.561C16.7376 20.6485 16.7815 20.6924 16.8202 20.7277C17.6594 21.4905 18.9406 21.4905 19.7798 20.7277C19.8186 20.6924 19.8624 20.6485 19.95 20.561C20.0376 20.4734 20.0815 20.4296 20.1167 20.3908C20.8794 19.5517 20.8794 18.2703 20.1167 17.4312C20.0815 17.3924 20.0376 17.3486 19.95 17.261L18.3 15.611M6.2 18.911V22.211H4" stroke="#009FE3" stroke-width="2" stroke-linecap="round" stroke-linejoin="round"/>
</svg>
